{
 "id": 1181292,
 "bug_id": 258976,
 "attachment_id": 0,
 "creation_time": "2021-10-07T05:41:57Z",
 "creator": "naito.yuichiro@gmail.com",
 "text": "When I use hevec_qsv encoding, ffmpeg always fails as follows.\nAnd also multimedia/handbrake doesn't show QSV encodings on the Video encoder menu.\n\n```\n$ ffmpeg -i /zpool/video/test.avi -vcodec hevc_qsv hevec_qsv_test.mp4\n\n(snip)\n\nInput #0, avi, from '/zpool/video/test.avi':\n  Metadata:\n    software        : Lavf58.29.100\n  Duration: 00:03:45.28, start: 0.000000, bitrate: 412 kb/s\n  Stream #0:0: Video: mpeg4 (Simple Profile) (FMP4 / 0x34504D46), yuv420p, 312x232 [SAR 1:1 DAR 39:29], 208 kb/s, 29.97 fps, 29.97 tbr, 29.97 tbn, 30k tbc\n  Stream #0:1: Audio: ac3 ([0] [0][0] / 0x2000), 44100 Hz, stereo, fltp, 192 kb/s\nStream mapping:\n  Stream #0:0 -\u003e #0:0 (mpeg4 (native) -\u003e hevc (hevc_qsv))\n  Stream #0:1 -\u003e #0:1 (ac3 (native) -\u003e aac (native))\nPress [q] to stop, [?] for help\n[hevc_qsv @ 0x806a75e00] Error initializing an internal MFX session: unsupported (-3)\nError initializing output stream 0:0 -- Error while opening encoder for output stream #0:0 - maybe incorrect parameters such as bit_rate, rate, width or height\n[aac @ 0x806a76d00] Qavg: 2305.336\n[aac @ 0x806a76d00] 2 frames left in the queue on closing\nConversion failed!\n```\n\nIf I downgrade intel-media-sdk to 21.3.0, it works as I expected.\n\nIt seems that hardware detection method has been changed since 21.3.1.\nSetting environment variable as `INTEL_MEDIA_RUNTIME=MSDK` works for me as a workaround."
}